<?xml version="1.0" encoding="utf-8"?>
<!-- Generator: Adobe Illustrator 27.5.0, SVG Export Plug-In . SVG Version: 6.00 Build 0)  -->
<svg version="1.1" id="Layer_1" xmlns="http://www.w3.org/2000/svg" xmlns:xlink="http://www.w3.org/1999/xlink" x="0px" y="0px"
	 viewBox="0 0 3873 3873" style="enable-background:new 0 0 3873 3873;" xml:space="preserve">
<g id="Layer_x0020_1">
	<circle style="fill-rule:evenodd;clip-rule:evenodd;fill:#669999;" cx="1936.5" cy="1936.5" r="1891.1"/>
	<g id="_580893496">
		<path id="_580894504" style="fill-rule:evenodd;clip-rule:evenodd;fill:#FFFFFF;" d="M841.6,935.5c-73.7,0-133.6,60-133.6,133.6
			v1734.6c0,73.8,60,133.6,133.6,133.6h2189.7c73.7,0,133.6-60,133.6-133.6V1069.2c0-73.7-60-133.6-133.6-133.6L841.6,935.5
			L841.6,935.5z M3031.4,2996.5H841.6c-106.2,0-192.7-86.4-192.7-192.6V1069.3c0-106.2,86.4-192.7,192.6-192.7h2189.7
			c106.2,0,192.6,86.4,192.6,192.7v1734.6C3224,2910,3137.6,2996.5,3031.4,2996.5L3031.4,2996.5z"/>
		<path id="_580894432" style="fill-rule:evenodd;clip-rule:evenodd;fill:#FFFFFF;" d="M3194.5,1329.3h-2516
			c-16.3,0-29.5-13.2-29.5-29.5s13.2-29.5,29.5-29.5h2516c16.3,0,29.5,13.2,29.5,29.5C3224,1316.1,3210.8,1329.3,3194.5,1329.3
			L3194.5,1329.3z"/>
		<path id="_580894408" style="fill-rule:evenodd;clip-rule:evenodd;fill:#FFFFFF;" d="M923.6,1140.3h141.7l-31.4-74.9H955
			L923.6,1140.3L923.6,1140.3z M1109.6,1199.4H879.3c-9.8,0-19.1-5-24.6-13.2c-5.4-8.2-6.5-18.6-2.6-27.7l56.2-133.8
			c4.6-11,15.3-18,27.2-18h118c11.9,0,22.5,7.1,27.2,18l56.2,133.8c3.9,9.1,2.8,19.5-2.6,27.7
			C1128.7,1194.4,1119.5,1199.4,1109.6,1199.4L1109.6,1199.4z"/>
		<path id="_580894624" style="fill-rule:evenodd;clip-rule:evenodd;fill:#FFFFFF;" d="M1300.9,1140.3h141.7l-31.4-74.9h-78.8
			L1300.9,1140.3L1300.9,1140.3z M1486.9,1199.4h-230.3c-9.8,0-19.1-5-24.6-13.2c-5.4-8.2-6.5-18.6-2.7-27.7l56.2-133.8
			c4.6-11,15.3-18,27.2-18h118c11.9,0,22.5,7.1,27.2,18l56.2,133.8c3.9,9.1,2.8,19.5-2.7,27.7
			C1506,1194.4,1496.8,1199.4,1486.9,1199.4L1486.9,1199.4z"/>
		<path id="_580894576" style="fill-rule:evenodd;clip-rule:evenodd;fill:#FFFFFF;" d="M1678.3,1140.3H1820l-31.4-74.9h-78.8
			L1678.3,1140.3L1678.3,1140.3z M1864.2,1199.4h-230.4c-9.8,0-19.1-5-24.5-13.2c-5.5-8.2-6.5-18.6-2.7-27.7l56.2-133.8
			c4.6-11,15.4-18,27.3-18h118c11.9,0,22.6,7.1,27.3,18l56.2,133.8c3.8,9.1,2.8,19.5-2.7,27.7
			C1883.3,1194.4,1874.1,1199.4,1864.2,1199.4L1864.2,1199.4z"/>
		<path id="_580894888" style="fill-rule:evenodd;clip-rule:evenodd;fill:#FFFFFF;" d="M2055.6,1140.3h141.6l-31.4-74.9H2087
			L2055.6,1140.3L2055.6,1140.3z M2241.6,1199.4h-230.3c-9.8,0-19.1-5-24.5-13.2c-5.5-8.2-6.5-18.6-2.7-27.7l56.2-133.8
			c4.6-11,15.3-18,27.2-18h118c11.9,0,22.6,7.1,27.2,18l56.2,133.8c3.8,9.1,2.8,19.5-2.7,27.7S2251.4,1199.4,2241.6,1199.4
			L2241.6,1199.4z"/>
		<path id="_580894864" style="fill-rule:evenodd;clip-rule:evenodd;fill:#FFFFFF;" d="M1648.2,2458.2
			c-86.8,0-168.3-33.8-229.6-95.1c-61.4-61.4-95.2-142.9-95.2-229.6c0-86.8,33.8-168.3,95.2-229.6c61.3-61.4,142.9-95.1,229.6-95.1
			s168.3,33.8,229.6,95.1c11.5,11.5,11.5,30.2,0,41.7c-11.4,11.5-30.2,11.5-41.7,0c-50.2-50.2-116.9-77.9-187.9-77.9
			s-137.7,27.7-187.9,77.9c-50.2,50.2-77.9,116.9-77.9,187.9s27.7,137.7,77.9,187.9c50.2,50.2,116.9,77.9,187.9,77.9
			s137.7-27.7,187.9-77.9c11.5-11.5,30.2-11.5,41.7,0s11.5,30.2,0,41.7C1816.5,2424.4,1734.9,2458.2,1648.2,2458.2L1648.2,2458.2z"
			/>
		<path id="_580894120" style="fill-rule:evenodd;clip-rule:evenodd;fill:#FFFFFF;" d="M2068.9,2458c-16.3,0-29.5-13.2-29.5-29.5
			v-590.2c0-16.3,13.2-29.5,29.5-29.5s29.5,13.2,29.5,29.5v590.2C2098.4,2444.7,2085.2,2458,2068.9,2458L2068.9,2458z"/>
		<path id="_580894048" style="fill-rule:evenodd;clip-rule:evenodd;fill:#FFFFFF;" d="M2381.1,2458c-16.3,0-29.5-13.2-29.5-29.5
			v-590.2c0-16.3,13.2-29.5,29.5-29.5s29.5,13.2,29.5,29.5v590.2C2410.6,2444.7,2397.4,2458,2381.1,2458L2381.1,2458z"/>
		<path id="_580893784" style="fill-rule:evenodd;clip-rule:evenodd;fill:#FFFFFF;" d="M2520.1,2040.2H1930
			c-16.3,0-29.5-13.2-29.5-29.5s13.2-29.5,29.5-29.5h590.2c16.3,0,29.5,13.2,29.5,29.5C2549.6,2027,2536.4,2040.2,2520.1,2040.2
			L2520.1,2040.2z"/>
		<path id="_580893952" style="fill-rule:evenodd;clip-rule:evenodd;fill:#FFFFFF;" d="M2520.1,2285.6H1930
			c-16.3,0-29.5-13.2-29.5-29.5s13.2-29.5,29.5-29.5h590.2c16.3,0,29.5,13.2,29.5,29.5C2549.6,2272.3,2536.4,2285.6,2520.1,2285.6
			L2520.1,2285.6z"/>
		<path id="_580893544" style="fill-rule:evenodd;clip-rule:evenodd;fill:#FFFFFF;" d="M1035.9,2595.3h1801.4v-923.9H1035.9V2595.3z
			 M2866.7,2654.3H1006.3c-16.3,0-29.5-13.2-29.5-29.5V1642c0-16.3,13.2-29.5,29.5-29.5h1860.3c16.3,0,29.5,13.2,29.5,29.5v982.8
			C2896.1,2641.1,2882.9,2654.3,2866.7,2654.3L2866.7,2654.3z"/>
	</g>
</g>
<rect style="fill:none;" width="3873" height="3873"/>
<rect style="fill:none;" width="3873" height="3873"/>
</svg>
