<?xml version="1.0" encoding="utf-8"?>
<!-- Generator: Adobe Illustrator 27.5.0, SVG Export Plug-In . SVG Version: 6.00 Build 0)  -->
<svg version="1.1" xmlns="http://www.w3.org/2000/svg" xmlns:xlink="http://www.w3.org/1999/xlink" x="0px" y="0px"
	 viewBox="0 0 500 500" style="enable-background:new 0 0 500 500;" xml:space="preserve">
<g id="Background">
	<rect style="fill:#69B5B5;" width="500" height="500"/>
</g>
<g id="Objects">
	
		<ellipse transform="matrix(0.7071 -0.7071 0.7071 0.7071 -119.5965 255.8289)" style="fill:#60A6A6;" cx="249.015" cy="272.28" rx="170.017" ry="170.017"/>
	<path style="fill:#FFFFFF;" d="M393.991,215.328v181.945c0,3.931-3.216,7.17-7.171,7.17H114.429c-3.931,0-7.17-3.239-7.17-7.17
		V215.328c0-3.931,3.239-7.171,7.17-7.171H386.82C390.775,208.157,393.991,211.396,393.991,215.328z"/>
	<g>
		<path style="fill:#252F40;" d="M393.991,215.315v161.953H107.258V215.315c0-3.931,3.239-7.171,7.17-7.171H386.82
			C390.775,208.144,393.991,211.384,393.991,215.315z"/>
		<g>
			<path style="fill:#252F40;" d="M114.435,372.038c-1.295,0-2.389-1.018-2.389-2.217V215.146c0-1.202,1.094-2.217,2.389-2.217
				h272.392c1.296,0,2.39,1.015,2.39,2.217v154.675c0,1.199-1.094,2.217-2.39,2.217H114.435z"/>
			<g>
				<polygon style="fill:#ADB3B3;" points="279.8,417.966 219.218,417.966 228.176,377.268 273.074,377.268 				"/>
				<path style="fill:#FFFFFF;" d="M393.991,215.716v181.945c0,3.931-3.216,7.17-7.171,7.17H114.429c-3.931,0-7.17-3.239-7.17-7.17
					V215.716c0-3.931,3.239-7.171,7.17-7.171H386.82C390.775,208.545,393.991,211.785,393.991,215.716z"/>
				<path style="fill:#252F40;" d="M393.991,215.315v161.953H107.258V215.315c0-3.931,3.239-7.171,7.17-7.171H386.82
					C390.775,208.144,393.991,211.384,393.991,215.315z"/>
				<path style="fill:#7ED9D9;" d="M114.477,371.092c-0.791,0-1.485-0.613-1.485-1.313V215.105c0-0.699,0.694-1.313,1.485-1.313
					h272.392c0.791,0,1.485,0.614,1.485,1.313v154.675c0,0.699-0.694,1.313-1.485,1.313H114.477z"/>
				<path style="fill:#252F40;" d="M256.801,391.179c0,3.406-2.762,6.169-6.169,6.169c-3.408,0-6.17-2.763-6.17-6.169
					c0-3.408,2.763-6.17,6.17-6.17C254.039,385.009,256.801,387.771,256.801,391.179z"/>
				<path style="fill:#FFFFFF;" d="M301.261,421.018c0,1.685-1.366,3.052-3.052,3.052h-95.168c-1.685,0-3.052-1.366-3.052-3.052l0,0
					c0-1.687,1.367-3.052,3.052-3.052h95.168C299.895,417.966,301.261,419.331,301.261,421.018L301.261,421.018z"/>
			</g>
		</g>
	</g>
	<g>
		<rect x="156.827" y="110.999" style="fill:#FFFFFF;" width="188.076" height="260.147"/>
		<rect x="156.827" y="110.999" style="fill:#E67001;" width="188.076" height="22.117"/>
		<rect x="164.362" y="116.847" style="fill:#FFFFFF;" width="37.977" height="2.678"/>
		<rect x="164.362" y="124.59" style="fill:#FFFFFF;" width="59.15" height="2.678"/>
		<rect x="177.021" y="153.045" style="fill:#E67001;" width="151.305" height="11.058"/>
		<rect x="177.021" y="183.034" style="fill:#E67001;" width="43.703" height="43.703"/>
		<rect x="177.021" y="334.261" style="fill:#E67001;" width="68.871" height="15.833"/>
		<rect x="177.021" y="175.876" style="fill:#252F40;" width="43.703" height="4.55"/>
		<rect x="230.822" y="175.876" style="fill:#252F40;" width="43.703" height="4.55"/>
		<rect x="284.623" y="175.876" style="fill:#252F40;" width="43.704" height="4.55"/>
		<rect x="230.822" y="183.034" style="fill:#ADB3B3;" width="43.702" height="43.703"/>
		<rect x="177.021" y="239.373" style="fill:#FAAF01;" width="151.303" height="43.703"/>
		<rect x="177.021" y="294.966" style="fill:#ADB3B3;" width="151.303" height="2.736"/>
		<rect x="177.021" y="302.197" style="fill:#ADB3B3;" width="151.303" height="2.736"/>
		<rect x="177.021" y="309.428" style="fill:#ADB3B3;" width="151.303" height="2.736"/>
		<rect x="177.021" y="316.659" style="fill:#ADB3B3;" width="68.871" height="2.736"/>
		<rect x="284.623" y="183.034" style="fill:#ADB3B3;" width="43.702" height="43.703"/>
		<rect x="220.725" y="155.192" style="fill:#FFFFFF;" width="93.944" height="7.001"/>
		<path style="fill:#FFFFFF;" d="M324.982,158.692c0,1.764-1.43,3.193-3.193,3.193c-1.764,0-3.192-1.429-3.192-3.193
			c0-1.763,1.429-3.193,3.192-3.193C323.553,155.499,324.982,156.929,324.982,158.692z"/>
		<path style="fill:#FFFFFF;" d="M338.433,122.058c0,1.398-1.134,2.532-2.533,2.532c-1.398,0-2.532-1.134-2.532-2.532
			c0-1.398,1.134-2.532,2.532-2.532C337.299,119.525,338.433,120.659,338.433,122.058z"/>
		<path style="fill:#FFFFFF;" d="M328.825,122.058c0,1.398-1.134,2.532-2.532,2.532c-1.399,0-2.533-1.134-2.533-2.532
			c0-1.398,1.134-2.532,2.533-2.532C327.691,119.525,328.825,120.659,328.825,122.058z"/>
		<path style="fill:#FFFFFF;" d="M319.218,122.058c0,1.398-1.134,2.532-2.532,2.532c-1.399,0-2.532-1.134-2.532-2.532
			c0-1.398,1.133-2.532,2.532-2.532C318.084,119.525,319.218,120.659,319.218,122.058z"/>
	</g>
	<g>
		<path style="fill:#AB0F01;" d="M378.369,259.605l-5.384-5.383c-2.476-2.477-6.492-2.477-8.971,0l-5.83,5.831l14.353,14.354
			l5.831-5.831C380.847,266.1,380.847,262.082,378.369,259.605z"/>
		
			<rect x="271.814" y="297.975" transform="matrix(0.7071 -0.7071 0.7071 0.7071 -122.8429 319.696)" style="fill:#E6A101;" width="105.305" height="20.3"/>
		
			<rect x="271.814" y="304.108" transform="matrix(0.7071 -0.7071 0.7071 0.7071 -122.8435 319.6805)" style="fill:#FAAF01;" width="105.306" height="8.035"/>
		<polygon style="fill:#EDDCB4;" points="294.414,352.532 279.841,357.624 272.357,360.234 274.969,352.752 280.06,338.178 		"/>
		<polygon style="fill:#E6A101;" points="279.841,357.624 272.357,360.234 274.969,352.752 		"/>
		
			<rect x="359.059" y="258.202" transform="matrix(0.7071 -0.7071 0.7071 0.7071 -83.0703 336.1547)" style="fill:#ADB3B3;" width="10.361" height="20.3"/>
		<path style="fill:#BEC4C4;" d="M373.94,273.679c-0.238,0.238-0.622,0.238-0.86,0l-14.167-14.167
			c-0.237-0.236-0.237-0.621,0.001-0.86l0,0c0.237-0.236,0.622-0.236,0.859,0l14.167,14.168
			C374.179,273.058,374.179,273.442,373.94,273.679L373.94,273.679z"/>
		<path style="fill:#BEC4C4;" d="M371.754,275.865c-0.237,0.238-0.623,0.238-0.861,0.001l-14.166-14.167
			c-0.237-0.237-0.237-0.623,0.001-0.86l0,0c0.237-0.237,0.622-0.237,0.859,0l14.168,14.168
			C371.992,275.244,371.992,275.629,371.754,275.865L371.754,275.865z"/>
		<path style="fill:#BEC4C4;" d="M369.567,278.053c-0.237,0.237-0.622,0.237-0.86,0.001l-14.168-14.168
			c-0.237-0.238-0.237-0.622,0.001-0.859l0,0c0.237-0.238,0.623-0.238,0.859,0l14.168,14.167
			C369.805,277.431,369.805,277.815,369.567,278.053L369.567,278.053z"/>
	</g>
	<g>
		<polygon style="fill:#FACE2D;" points="265.387,371.37 254.9,377.357 233.024,389.847 101.321,159.192 101.228,159.035 
			133.591,140.549 		"/>
		<polygon style="fill:#FAC401;" points="254.9,377.357 233.024,389.847 101.321,159.192 123.207,146.692 		"/>
		<g>
			
				<rect x="134.471" y="147.417" transform="matrix(0.8684 -0.4959 0.4959 0.8684 -55.7823 87.0167)" style="fill:#252F40;" width="3.117" height="2.345"/>
			
				<rect x="138.841" y="155.032" transform="matrix(0.8683 -0.496 0.496 0.8683 -58.9923 90.2137)" style="fill:#252F40;" width="3.116" height="2.344"/>
			
				<rect x="143.21" y="162.646" transform="matrix(0.8685 -0.4957 0.4957 0.8685 -62.1661 93.3023)" style="fill:#252F40;" width="3.117" height="2.345"/>
			
				<rect x="147.58" y="170.261" transform="matrix(0.8684 -0.4958 0.4958 0.8684 -65.379 96.5071)" style="fill:#252F40;" width="3.116" height="2.345"/>
			
				<rect x="151.949" y="177.875" transform="matrix(0.8685 -0.4956 0.4956 0.8685 -68.5594 99.6191)" style="fill:#252F40;" width="3.117" height="2.345"/>
			
				<rect x="156.319" y="185.489" transform="matrix(0.8684 -0.4958 0.4958 0.8684 -71.7764 102.834)" style="fill:#252F40;" width="3.116" height="2.345"/>
			
				<rect x="160.688" y="193.104" transform="matrix(0.8684 -0.4959 0.4959 0.8684 -74.9904 106.0384)" style="fill:#252F40;" width="3.116" height="2.344"/>
			
				<rect x="165.057" y="200.718" transform="matrix(0.8683 -0.496 0.496 0.8683 -78.1976 109.2238)" style="fill:#252F40;" width="3.116" height="2.345"/>
			
				<rect x="169.427" y="208.333" transform="matrix(0.8683 -0.496 0.496 0.8683 -81.397 112.3887)" style="fill:#252F40;" width="3.116" height="2.345"/>
			
				<rect x="173.796" y="215.947" transform="matrix(0.8685 -0.4957 0.4957 0.8685 -84.5603 115.4613)" style="fill:#252F40;" width="3.117" height="2.345"/>
			
				<rect x="178.166" y="223.561" transform="matrix(0.8684 -0.4959 0.4959 0.8684 -87.7848 118.6909)" style="fill:#252F40;" width="3.116" height="2.345"/>
			
				<rect x="182.535" y="231.176" transform="matrix(0.8685 -0.4957 0.4957 0.8685 -90.9635 121.8048)" style="fill:#252F40;" width="3.116" height="2.344"/>
			
				<rect x="186.905" y="238.79" transform="matrix(0.8684 -0.4959 0.4959 0.8684 -94.1864 125.0292)" style="fill:#252F40;" width="3.116" height="2.344"/>
			
				<rect x="191.274" y="246.406" transform="matrix(0.8684 -0.4958 0.4958 0.8684 -97.3848 128.1923)" style="fill:#252F40;" width="3.116" height="2.343"/>
			
				<rect x="195.643" y="254.02" transform="matrix(0.8682 -0.4962 0.4962 0.8682 -100.6393 131.4899)" style="fill:#252F40;" width="3.117" height="2.345"/>
			
				<rect x="200.012" y="261.634" transform="matrix(0.8683 -0.496 0.496 0.8683 -103.8039 134.5717)" style="fill:#252F40;" width="3.117" height="2.344"/>
			
				<rect x="204.382" y="269.247" transform="matrix(0.8682 -0.4962 0.4962 0.8682 -107.0438 137.8334)" style="fill:#252F40;" width="3.117" height="2.345"/>
			
				<rect x="208.751" y="276.862" transform="matrix(0.8682 -0.4963 0.4963 0.8682 -110.2537 141.0217)" style="fill:#252F40;" width="3.117" height="2.345"/>
			
				<rect x="213.121" y="284.477" transform="matrix(0.8683 -0.496 0.496 0.8683 -113.419 144.1065)" style="fill:#252F40;" width="3.116" height="2.345"/>
			
				<rect x="217.491" y="292.091" transform="matrix(0.8684 -0.4958 0.4958 0.8684 -116.5795 147.1832)" style="fill:#252F40;" width="3.116" height="2.345"/>
			
				<rect x="221.86" y="299.705" transform="matrix(0.8682 -0.4962 0.4962 0.8682 -119.854 150.5206)" style="fill:#252F40;" width="3.116" height="2.345"/>
			
				<rect x="226.229" y="307.32" transform="matrix(0.8682 -0.4962 0.4962 0.8682 -123.0623 153.7051)" style="fill:#252F40;" width="3.117" height="2.345"/>
			
				<rect x="230.599" y="314.934" transform="matrix(0.8686 -0.4955 0.4955 0.8686 -126.1301 156.5746)" style="fill:#252F40;" width="3.116" height="2.344"/>
			
				<rect x="234.968" y="322.55" transform="matrix(0.8682 -0.4962 0.4962 0.8682 -129.4575 160.0259)" style="fill:#252F40;" width="3.117" height="2.344"/>
			
				<rect x="239.338" y="330.164" transform="matrix(0.8685 -0.4957 0.4957 0.8685 -132.5679 162.9938)" style="fill:#252F40;" width="3.116" height="2.343"/>
			
				<rect x="243.707" y="337.778" transform="matrix(0.8683 -0.496 0.496 0.8683 -135.8323 166.3037)" style="fill:#252F40;" width="3.116" height="2.344"/>
			
				<rect x="248.077" y="345.392" transform="matrix(0.8684 -0.4958 0.4958 0.8684 -138.9891 169.3767)" style="fill:#252F40;" width="3.116" height="2.344"/>
			
				<rect x="252.446" y="353.006" transform="matrix(0.8682 -0.4961 0.4961 0.8682 -142.2569 172.6917)" style="fill:#252F40;" width="3.117" height="2.344"/>
			
				<rect x="256.816" y="360.622" transform="matrix(0.8686 -0.4955 0.4955 0.8686 -145.3264 175.5742)" style="fill:#252F40;" width="3.117" height="2.344"/>
		</g>
	</g>
	<g>
		<g>
			<rect x="140.208" y="259.588" style="fill:#FFFFFF;" width="42.95" height="134.296"/>
			<rect x="144.729" y="367.896" style="fill:#FAE28C;" width="33.908" height="21.322"/>
			<rect x="144.729" y="341.975" style="fill:#FAD755;" width="33.908" height="21.322"/>
			<rect x="144.729" y="316.053" style="fill:#FACE2D;" width="33.908" height="21.322"/>
			<rect x="144.729" y="290.132" style="fill:#FAC32D;" width="33.908" height="21.322"/>
			<rect x="144.729" y="264.211" style="fill:#FAAF01;" width="33.908" height="21.322"/>
		</g>
		<g>
			
				<rect x="112.903" y="276.477" transform="matrix(0.9031 -0.4295 0.4295 0.9031 -134.5567 91.0188)" style="fill:#FFFFFF;" width="42.95" height="134.297"/>
			
				<rect x="139.679" y="379.762" transform="matrix(0.9031 -0.4295 0.4295 0.9031 -152.4901 105.104)" style="fill:#FFB169;" width="33.907" height="21.322"/>
			
				<rect x="128.547" y="356.353" transform="matrix(0.9031 -0.4295 0.4295 0.9031 -143.5205 98.0594)" style="fill:#FF9F45;" width="33.908" height="21.322"/>
			
				<rect x="117.414" y="332.945" transform="matrix(0.9031 -0.4294 0.4294 0.9031 -134.5376 91.0006)" style="fill:#FF8A1C;" width="33.908" height="21.322"/>
			
				<rect x="106.282" y="309.536" transform="matrix(0.9031 -0.4295 0.4295 0.9031 -125.5731 83.9613)" style="fill:#FF7C01;" width="33.908" height="21.322"/>
			
				<rect x="95.15" y="286.128" transform="matrix(0.9031 -0.4295 0.4295 0.9031 -116.599 76.9117)" style="fill:#E67001;" width="33.908" height="21.322"/>
		</g>
		<g>
			
				<rect x="99.926" y="293.367" transform="matrix(0.7427 -0.6696 0.6696 0.7427 -210.1757 174.058)" style="fill:#FFFFFF;" width="42.95" height="134.297"/>
			
				<rect x="139.147" y="388.342" transform="matrix(0.7427 -0.6696 0.6696 0.7427 -227.0165 207.1909)" style="fill:#FF6F3B;" width="33.907" height="21.322"/>
			
				<rect x="121.79" y="369.09" transform="matrix(0.7427 -0.6696 0.6696 0.7427 -218.5885 190.6104)" style="fill:#ED4001;" width="33.908" height="21.322"/>
			
				<rect x="104.433" y="349.838" transform="matrix(0.7427 -0.6696 0.6696 0.7427 -210.1636 174.0351)" style="fill:#CC1201;" width="33.908" height="21.322"/>
			
				<rect x="87.075" y="330.587" transform="matrix(0.7427 -0.6696 0.6696 0.7427 -201.743 157.466)" style="fill:#AB0F01;" width="33.908" height="21.322"/>
			
				<rect x="69.718" y="311.336" transform="matrix(0.7427 -0.6696 0.6696 0.7427 -193.3189 140.8916)" style="fill:#940D01;" width="33.908" height="21.322"/>
		</g>
	</g>
	<g>
		<path style="fill:#FF6F3B;" d="M347.615,349.202c-16.809,0-30.444,13.636-30.444,30.446c0,16.809,13.636,30.444,30.444,30.444
			c16.81,0,30.445-13.636,30.445-30.444C378.06,362.838,364.425,349.202,347.615,349.202z M347.615,398.609
			c-10.452,0-18.961-8.509-18.961-18.961c0-10.453,8.509-18.962,18.961-18.962c10.453,0,18.962,8.509,18.962,18.962
			C366.577,390.101,358.068,398.609,347.615,398.609z"/>
		<path style="fill:#FF6F3B;" d="M350.799,342.517h-2.863h-0.641h-2.863c-1.499,0-2.713,1.214-2.713,2.712v8.364h5.576h0.641h5.576
			v-8.364C353.512,343.73,352.298,342.517,350.799,342.517z"/>
		<path style="fill:#FF6F3B;" d="M323.639,351.316l-2.024,2.025l-0.453,0.452l-2.024,2.026c-1.06,1.059-1.06,2.775,0,3.835
			l5.914,5.915l3.943-3.943l0.452-0.452l3.943-3.944l-5.914-5.914C326.416,350.257,324.698,350.257,323.639,351.316z"/>
		<path style="fill:#FF6F3B;" d="M310.656,376.745l0.001,2.863l-0.001,0.64l0.002,2.864c-0.002,1.497,1.213,2.713,2.711,2.713h8.364
			v-5.576v-0.641v-5.576l-8.364-0.001C311.871,374.031,310.656,375.246,310.656,376.745z"/>
		<path style="fill:#FF6F3B;" d="M319.456,403.905l2.025,2.024l0.452,0.452l2.027,2.025c1.058,1.06,2.775,1.06,3.835,0.001
			l5.914-5.915l-3.942-3.942l-0.453-0.453l-3.942-3.942l-5.916,5.914C318.396,401.128,318.396,402.846,319.456,403.905z"/>
		<path style="fill:#FF6F3B;" d="M344.886,416.888l2.862-0.001l0.64,0.001l2.864-0.002c1.498,0.002,2.714-1.213,2.714-2.712
			l-0.001-8.363h-5.575h-0.642h-5.575l-0.002,8.364C342.171,415.673,343.386,416.888,344.886,416.888z"/>
		<path style="fill:#FF6F3B;" d="M372.045,408.088l2.024-2.026l0.453-0.451l2.024-2.026c1.061-1.059,1.061-2.777,0.001-3.837
			l-5.915-5.913l-3.942,3.942l-0.454,0.453l-3.941,3.942l5.913,5.916C369.268,409.147,370.985,409.147,372.045,408.088z"/>
		<path style="fill:#FF6F3B;" d="M385.028,382.659l-0.001-2.863l0.001-0.64l-0.002-2.864c0.002-1.499-1.213-2.714-2.712-2.714
			l-8.363,0.001v5.575v0.642v5.575l8.363,0.002C383.813,385.373,385.028,384.158,385.028,382.659z"/>
		<path style="fill:#FF6F3B;" d="M376.227,355.498l-2.026-2.023l-0.45-0.454l-2.027-2.023c-1.058-1.061-2.776-1.061-3.836-0.001
			l-5.913,5.914l3.942,3.943l0.453,0.452l3.942,3.943l5.915-5.913C377.288,358.276,377.288,356.559,376.227,355.498z"/>
		<path style="fill:#AB0F01;" d="M347.615,356.491c-12.938,0-23.436,10.498-23.436,23.436c0,12.939,10.498,23.438,23.436,23.438
			c12.94,0,23.438-10.498,23.438-23.438C371.053,366.989,360.555,356.491,347.615,356.491z M347.615,398.609
			c-10.452,0-18.961-8.509-18.961-18.961c0-10.453,8.509-18.962,18.961-18.962c10.453,0,18.962,8.509,18.962,18.962
			C366.577,390.101,358.068,398.609,347.615,398.609z"/>
	</g>
	<g>
		<path style="fill:#FF6F3B;" d="M380.914,312.427c-10.813,0-19.584,8.771-19.584,19.584c0,10.813,8.772,19.585,19.584,19.585
			s19.585-8.772,19.585-19.585C400.499,321.197,391.727,312.427,380.914,312.427z M380.914,344.208
			c-6.724,0-12.197-5.473-12.197-12.197c0-6.724,5.474-12.197,12.197-12.197c6.724,0,12.197,5.474,12.197,12.197
			C393.111,338.735,387.638,344.208,380.914,344.208z"/>
		<path style="fill:#FF6F3B;" d="M382.962,308.125h-1.842h-0.412h-1.843c-0.963,0-1.744,0.781-1.744,1.745v5.381h3.587h0.412h3.587
			v-5.381C384.707,308.906,383.926,308.125,382.962,308.125z"/>
		<path style="fill:#FF6F3B;" d="M365.489,313.786l-1.301,1.303l-0.292,0.292l-1.302,1.302c-0.682,0.682-0.682,1.786,0,2.468
			l3.805,3.805l2.536-2.536l0.291-0.291l2.536-2.537l-3.804-3.805C367.277,313.104,366.171,313.104,365.489,313.786z"/>
		<path style="fill:#FF6F3B;" d="M357.139,330.144l0.001,1.842l-0.001,0.412l0.001,1.843c-0.001,0.963,0.781,1.744,1.745,1.744h5.38
			v-3.587v-0.412v-3.587l-5.38-0.001C357.921,328.397,357.139,329.18,357.139,330.144z"/>
		<path style="fill:#FF6F3B;" d="M362.8,347.616l1.304,1.301l0.29,0.291l1.304,1.303c0.681,0.683,1.786,0.683,2.468,0l3.805-3.805
			l-2.537-2.536l-0.292-0.291l-2.536-2.536l-3.805,3.804C362.118,345.828,362.118,346.935,362.8,347.616z"/>
		<path style="fill:#FF6F3B;" d="M379.158,355.967l1.841-0.001l0.411,0.001l1.843-0.001c0.965,0.001,1.746-0.781,1.746-1.745
			l-0.001-5.38h-3.587h-0.412h-3.586l-0.002,5.381C377.411,355.185,378.193,355.967,379.158,355.967z"/>
		<path style="fill:#FF6F3B;" d="M396.629,350.306l1.302-1.304l0.292-0.289l1.302-1.305c0.683-0.681,0.683-1.786,0.001-2.468
			l-3.805-3.805l-2.536,2.537l-0.292,0.292l-2.535,2.536l3.803,3.805C394.842,350.987,395.947,350.987,396.629,350.306z"/>
		<path style="fill:#FF6F3B;" d="M404.98,333.948l-0.001-1.842l0.001-0.411l-0.001-1.843c0.001-0.965-0.78-1.746-1.744-1.746
			l-5.381,0.001v3.587v0.412v3.586l5.381,0.002C404.199,335.694,404.98,334.912,404.98,333.948z"/>
		<path style="fill:#FF6F3B;" d="M399.319,316.477l-1.303-1.302l-0.29-0.292l-1.304-1.302c-0.681-0.683-1.786-0.683-2.468-0.001
			l-3.805,3.805l2.537,2.536l0.291,0.291l2.536,2.536l3.805-3.803C400.002,318.264,400.002,317.158,399.319,316.477z"/>
		<path style="fill:#AB0F01;" d="M380.914,317.114c-8.323,0-15.076,6.754-15.076,15.077c0,8.323,6.753,15.076,15.076,15.076
			c8.323,0,15.077-6.753,15.077-15.076C395.991,323.868,389.237,317.114,380.914,317.114z M380.914,344.208
			c-6.724,0-12.197-5.473-12.197-12.197c0-6.724,5.474-12.197,12.197-12.197c6.724,0,12.197,5.474,12.197,12.197
			C393.111,338.735,387.638,344.208,380.914,344.208z"/>
	</g>
	<text transform="matrix(1 0 0 1 192.0605 55.7891)" style="font-family:'Montserrat-Bold'; font-size:16.2974px;">WEB DESIGN</text>
</g>
<g id="Designed_by_Freepik">
	<g>
		<g>
			<path style="fill:#1F1A15;" d="M181.074,469.652c-0.246,0-0.434,0.085-0.567,0.255c-0.133,0.171-0.199,0.421-0.199,0.754v2.392
				c-0.305-0.331-0.618-0.578-0.938-0.738c-0.321-0.16-0.715-0.24-1.181-0.24c-0.808,0-1.458,0.283-1.953,0.849
				c-0.495,0.565-0.742,1.355-0.742,2.369c0,0.479,0.063,0.924,0.187,1.335c0.124,0.412,0.307,0.77,0.549,1.074
				c0.241,0.305,0.527,0.54,0.857,0.704c0.331,0.164,0.69,0.246,1.078,0.246c0.293,0,0.563-0.04,0.81-0.122
				c0.248-0.081,0.477-0.199,0.688-0.356c0.212-0.155,0.426-0.359,0.645-0.608v0.161c0,0.297,0.072,0.524,0.216,0.686
				c0.144,0.16,0.328,0.24,0.549,0.24c0.226,0,0.41-0.077,0.552-0.232c0.143-0.154,0.214-0.386,0.214-0.694v-7.147
				c0-0.305-0.066-0.534-0.199-0.691C181.508,469.73,181.319,469.652,181.074,469.652z M180.008,476.494
				c-0.14,0.306-0.328,0.534-0.564,0.682c-0.236,0.149-0.496,0.224-0.781,0.224c-0.281,0-0.54-0.079-0.778-0.235
				c-0.237-0.156-0.424-0.389-0.561-0.697c-0.136-0.309-0.205-0.683-0.205-1.122c0-0.415,0.064-0.78,0.193-1.096
				c0.128-0.314,0.309-0.556,0.543-0.724c0.234-0.168,0.499-0.252,0.796-0.252c0.285,0,0.547,0.082,0.786,0.245
				c0.24,0.165,0.43,0.402,0.57,0.713c0.141,0.312,0.211,0.682,0.211,1.113C180.219,475.804,180.148,476.188,180.008,476.494z"/>
			<path style="fill:#1F1A15;" d="M188.44,475.574c0.233-0.122,0.35-0.386,0.35-0.794c0-0.439-0.113-0.87-0.338-1.294
				c-0.225-0.423-0.565-0.768-1.019-1.035c-0.453-0.268-0.996-0.4-1.629-0.4c-0.487,0-0.93,0.078-1.33,0.234
				c-0.4,0.156-0.736,0.381-1.01,0.674c-0.272,0.293-0.48,0.643-0.623,1.054c-0.143,0.409-0.213,0.854-0.213,1.332
				c0,1.017,0.289,1.823,0.867,2.416c0.578,0.593,1.387,0.891,2.427,0.891c0.455,0,0.858-0.06,1.208-0.179
				c0.351-0.119,0.641-0.268,0.873-0.447c0.232-0.181,0.404-0.368,0.52-0.564c0.114-0.196,0.172-0.367,0.172-0.514
				c0-0.166-0.052-0.294-0.155-0.385c-0.102-0.092-0.237-0.138-0.403-0.138c-0.155,0-0.274,0.036-0.357,0.107
				c-0.202,0.19-0.366,0.341-0.493,0.452c-0.126,0.11-0.265,0.215-0.415,0.311c-0.151,0.098-0.306,0.168-0.466,0.215
				c-0.161,0.045-0.338,0.066-0.531,0.066c-0.289,0-0.553-0.07-0.792-0.213c-0.239-0.143-0.432-0.354-0.576-0.635
				c-0.145-0.281-0.219-0.605-0.223-0.974h3.169C187.878,475.755,188.207,475.694,188.44,475.574z M184.285,474.835
				c0.056-0.547,0.212-0.96,0.472-1.238c0.259-0.279,0.591-0.418,0.995-0.418c0.423,0,0.764,0.137,1.023,0.412
				c0.259,0.274,0.41,0.69,0.449,1.244H184.285z"/>
			<path style="fill:#1F1A15;" d="M193.868,475.137c-0.319-0.17-0.729-0.316-1.231-0.439c-0.424-0.103-0.756-0.189-0.997-0.261
				c-0.242-0.07-0.434-0.161-0.577-0.271c-0.142-0.108-0.213-0.247-0.213-0.418c0-0.186,0.097-0.342,0.29-0.466
				c0.194-0.125,0.437-0.186,0.73-0.186c0.286,0,0.511,0.047,0.677,0.142c0.167,0.096,0.31,0.223,0.433,0.381
				c0.15,0.189,0.284,0.332,0.4,0.426c0.117,0.097,0.258,0.144,0.424,0.144c0.23,0,0.407-0.06,0.532-0.178
				c0.124-0.119,0.186-0.271,0.186-0.457c0-0.171-0.059-0.345-0.175-0.523c-0.117-0.178-0.287-0.34-0.51-0.485
				c-0.223-0.146-0.503-0.265-0.837-0.351c-0.334-0.088-0.711-0.132-1.131-0.132c-0.534,0-0.99,0.087-1.368,0.259
				c-0.378,0.173-0.664,0.403-0.858,0.691c-0.194,0.289-0.291,0.597-0.291,0.92c0,0.364,0.105,0.671,0.315,0.921
				c0.209,0.249,0.49,0.45,0.84,0.602c0.351,0.152,0.805,0.299,1.362,0.436c0.495,0.119,0.85,0.244,1.066,0.375
				c0.216,0.131,0.323,0.337,0.323,0.622c0,0.186-0.104,0.352-0.311,0.496c-0.208,0.145-0.474,0.217-0.799,0.217
				c-0.4,0-0.715-0.071-0.947-0.213c-0.231-0.144-0.431-0.358-0.597-0.648c-0.083-0.149-0.169-0.267-0.261-0.35
				c-0.091-0.083-0.222-0.124-0.392-0.124c-0.194,0-0.355,0.064-0.481,0.19c-0.127,0.127-0.19,0.278-0.19,0.457
				c0,0.27,0.099,0.537,0.297,0.805c0.198,0.267,0.504,0.489,0.92,0.667c0.416,0.179,0.915,0.268,1.496,0.268
				c0.609,0,1.127-0.082,1.552-0.246c0.425-0.164,0.747-0.406,0.964-0.725c0.218-0.318,0.327-0.702,0.327-1.149
				c0-0.296-0.082-0.561-0.246-0.791C194.428,475.508,194.186,475.307,193.868,475.137z"/>
			<path style="fill:#1F1A15;" d="M196.476,472.061c-0.238,0-0.431,0.081-0.579,0.244c-0.149,0.162-0.223,0.404-0.223,0.724v4.637
				c0,0.316,0.074,0.56,0.223,0.731c0.148,0.17,0.341,0.255,0.579,0.255c0.238,0,0.433-0.083,0.588-0.249
				c0.154-0.166,0.231-0.412,0.231-0.736v-4.684c0-0.289-0.077-0.515-0.231-0.677C196.909,472.143,196.714,472.061,196.476,472.061z
				"/>
			<path style="fill:#1F1A15;" d="M196.494,469.723c-0.217,0-0.408,0.074-0.573,0.224c-0.164,0.148-0.246,0.337-0.246,0.566
				c0,0.254,0.08,0.45,0.24,0.588c0.161,0.139,0.354,0.208,0.579,0.208c0.218,0,0.406-0.07,0.564-0.211
				c0.158-0.141,0.238-0.335,0.238-0.585c0-0.258-0.081-0.453-0.244-0.588C196.89,469.79,196.704,469.723,196.494,469.723z"/>
			<path style="fill:#1F1A15;" d="M203.617,472.061c-0.218,0-0.396,0.078-0.535,0.232c-0.139,0.155-0.207,0.373-0.207,0.653v0.221
				c-0.289-0.376-0.602-0.652-0.938-0.829c-0.336-0.175-0.734-0.264-1.193-0.264c-0.384,0-0.736,0.068-1.057,0.204
				c-0.32,0.137-0.604,0.34-0.849,0.608c-0.245,0.27-0.434,0.6-0.567,0.992c-0.133,0.392-0.199,0.831-0.199,1.317
				c0,0.653,0.108,1.229,0.327,1.728c0.217,0.499,0.529,0.887,0.934,1.163c0.406,0.277,0.88,0.416,1.422,0.416
				c0.451,0,0.84-0.091,1.166-0.272c0.327-0.183,0.614-0.447,0.864-0.797c-0.008,0.531-0.019,0.916-0.035,1.155
				c-0.016,0.24-0.07,0.465-0.164,0.674c-0.093,0.21-0.255,0.373-0.487,0.489c-0.231,0.117-0.557,0.176-0.977,0.176
				c-0.205,0-0.388-0.02-0.546-0.057c-0.158-0.037-0.293-0.095-0.406-0.171c-0.112-0.078-0.216-0.171-0.309-0.28
				c-0.093-0.108-0.183-0.217-0.27-0.324c-0.178-0.209-0.386-0.314-0.623-0.314c-0.189,0-0.353,0.062-0.487,0.187
				c-0.135,0.124-0.202,0.286-0.202,0.484c0,0.261,0.12,0.516,0.356,0.763c0.238,0.247,0.576,0.448,1.015,0.605
				c0.439,0.156,0.938,0.234,1.496,0.234c0.61,0,1.12-0.062,1.529-0.185c0.409-0.122,0.741-0.311,0.994-0.564
				c0.254-0.253,0.438-0.574,0.552-0.961c0.115-0.389,0.173-0.852,0.173-1.39v-4.707c0-0.384-0.052-0.679-0.155-0.882
				C204.137,472.164,203.93,472.061,203.617,472.061z M202.59,476.429c-0.15,0.29-0.345,0.508-0.585,0.652
				c-0.239,0.145-0.494,0.217-0.762,0.217c-0.456,0-0.827-0.168-1.114-0.505c-0.287-0.336-0.43-0.833-0.43-1.489
				c0-0.649,0.139-1.15,0.419-1.502c0.278-0.352,0.649-0.528,1.112-0.528c0.476,0,0.858,0.185,1.149,0.553
				c0.291,0.367,0.436,0.882,0.436,1.543C202.815,475.784,202.74,476.138,202.59,476.429z"/>
			<path style="fill:#1F1A15;" d="M210.971,473.13c-0.165-0.339-0.417-0.603-0.753-0.788c-0.336-0.186-0.718-0.28-1.146-0.28
				c-0.439,0-0.828,0.089-1.166,0.265c-0.339,0.177-0.65,0.452-0.935,0.828v-0.195c0-0.194-0.035-0.358-0.104-0.493
				c-0.069-0.134-0.162-0.234-0.276-0.303c-0.115-0.067-0.244-0.102-0.387-0.102c-0.233,0-0.417,0.077-0.552,0.229
				c-0.135,0.152-0.202,0.384-0.202,0.692v4.684c0,0.316,0.075,0.56,0.226,0.731c0.15,0.17,0.342,0.255,0.576,0.255
				c0.242,0,0.438-0.082,0.591-0.246c0.151-0.164,0.229-0.411,0.229-0.739v-2.03c0-0.661,0.04-1.111,0.118-1.354
				c0.111-0.3,0.285-0.537,0.522-0.71c0.238-0.172,0.501-0.258,0.79-0.258c0.444,0,0.739,0.142,0.888,0.425
				c0.148,0.282,0.223,0.691,0.223,1.226v2.701c0,0.316,0.075,0.56,0.226,0.731c0.15,0.17,0.346,0.255,0.588,0.255
				c0.237,0,0.43-0.083,0.579-0.249c0.148-0.166,0.223-0.412,0.223-0.736v-3.016c0-0.356-0.017-0.648-0.048-0.879
				C211.147,473.543,211.078,473.328,210.971,473.13z"/>
			<path style="fill:#1F1A15;" d="M217.815,475.574c0.234-0.122,0.351-0.386,0.351-0.794c0-0.439-0.113-0.87-0.339-1.294
				c-0.226-0.423-0.565-0.768-1.019-1.035c-0.453-0.268-0.996-0.4-1.628-0.4c-0.487,0-0.931,0.078-1.33,0.234
				c-0.399,0.156-0.736,0.381-1.009,0.674c-0.273,0.293-0.481,0.643-0.624,1.054c-0.142,0.409-0.213,0.854-0.213,1.332
				c0,1.017,0.289,1.823,0.866,2.416c0.579,0.593,1.388,0.891,2.428,0.891c0.455,0,0.858-0.06,1.208-0.179
				c0.35-0.119,0.641-0.268,0.872-0.447c0.232-0.181,0.405-0.368,0.52-0.564c0.115-0.196,0.172-0.367,0.172-0.514
				c0-0.166-0.051-0.294-0.154-0.385c-0.103-0.092-0.237-0.138-0.404-0.138c-0.154,0-0.273,0.036-0.356,0.107
				c-0.202,0.19-0.366,0.341-0.492,0.452c-0.128,0.11-0.266,0.215-0.416,0.311c-0.151,0.098-0.306,0.168-0.466,0.215
				c-0.161,0.045-0.338,0.066-0.532,0.066c-0.289,0-0.553-0.07-0.792-0.213c-0.24-0.143-0.432-0.354-0.576-0.635
				c-0.146-0.281-0.219-0.605-0.223-0.974h3.169C217.253,475.755,217.582,475.694,217.815,475.574z M213.66,474.835
				c0.056-0.547,0.212-0.96,0.472-1.238c0.259-0.279,0.591-0.418,0.995-0.418c0.423,0,0.765,0.137,1.024,0.412
				c0.259,0.274,0.409,0.69,0.448,1.244H213.66z"/>
			<path style="fill:#1F1A15;" d="M224.202,469.652c-0.245,0-0.435,0.085-0.567,0.255c-0.133,0.171-0.199,0.421-0.199,0.754v2.392
				c-0.304-0.331-0.617-0.578-0.937-0.738c-0.32-0.16-0.714-0.24-1.182-0.24c-0.807,0-1.458,0.283-1.953,0.849
				c-0.495,0.565-0.742,1.355-0.742,2.369c0,0.479,0.063,0.924,0.187,1.335c0.124,0.412,0.308,0.77,0.549,1.074
				c0.242,0.305,0.528,0.54,0.858,0.704c0.331,0.164,0.689,0.246,1.078,0.246c0.293,0,0.563-0.04,0.81-0.122
				c0.248-0.081,0.477-0.199,0.688-0.356c0.212-0.155,0.426-0.359,0.644-0.608v0.161c0,0.297,0.072,0.524,0.217,0.686
				c0.145,0.16,0.328,0.24,0.549,0.24c0.226,0,0.41-0.077,0.552-0.232s0.213-0.386,0.213-0.694v-7.147
				c0-0.305-0.066-0.534-0.199-0.691C224.636,469.73,224.447,469.652,224.202,469.652z M223.136,476.494
				c-0.14,0.306-0.328,0.534-0.564,0.682c-0.235,0.149-0.495,0.224-0.781,0.224c-0.281,0-0.54-0.079-0.777-0.235
				c-0.238-0.156-0.425-0.389-0.562-0.697c-0.137-0.309-0.205-0.683-0.205-1.122c0-0.415,0.064-0.78,0.193-1.096
				c0.128-0.314,0.31-0.556,0.543-0.724c0.233-0.168,0.499-0.252,0.795-0.252c0.285,0,0.547,0.082,0.787,0.245
				c0.24,0.165,0.43,0.402,0.57,0.713c0.141,0.312,0.211,0.682,0.211,1.113C223.347,475.804,223.276,476.188,223.136,476.494z"/>
			<path style="fill:#1F1A15;" d="M233.583,472.456c-0.406-0.254-0.878-0.382-1.416-0.382c-0.467,0-0.859,0.084-1.176,0.252
				c-0.316,0.168-0.627,0.411-0.932,0.727v-2.475c0-0.297-0.067-0.524-0.202-0.685c-0.134-0.16-0.326-0.24-0.576-0.24
				c-0.237,0-0.423,0.084-0.556,0.252c-0.132,0.168-0.198,0.416-0.198,0.745v7.076c0,0.305,0.068,0.535,0.205,0.692
				c0.137,0.156,0.32,0.233,0.549,0.233c0.226,0,0.412-0.077,0.558-0.233c0.146-0.157,0.22-0.388,0.22-0.692v-0.161
				c0.178,0.206,0.322,0.361,0.431,0.464c0.109,0.103,0.241,0.203,0.395,0.3c0.154,0.098,0.341,0.175,0.561,0.234
				c0.219,0.06,0.454,0.089,0.704,0.089c0.407,0,0.78-0.082,1.119-0.246c0.338-0.164,0.626-0.397,0.864-0.698
				c0.237-0.301,0.419-0.655,0.543-1.065c0.125-0.409,0.188-0.859,0.188-1.35c0-0.665-0.112-1.241-0.336-1.725
				C234.302,473.082,233.988,472.713,233.583,472.456z M232.792,476.868c-0.294,0.354-0.646,0.531-1.053,0.531
				c-0.479,0-0.866-0.174-1.161-0.521c-0.295-0.346-0.442-0.841-0.442-1.486c0-0.44,0.069-0.819,0.208-1.137
				c0.139-0.319,0.329-0.563,0.57-0.73s0.517-0.252,0.825-0.252c0.301,0,0.564,0.084,0.79,0.252
				c0.225,0.168,0.399,0.406,0.522,0.716c0.123,0.308,0.184,0.677,0.184,1.103C233.235,476.006,233.087,476.514,232.792,476.868z"/>
			<path style="fill:#1F1A15;" d="M240.528,472.16c-0.113-0.066-0.23-0.099-0.354-0.099c-0.17,0-0.302,0.03-0.395,0.09
				c-0.093,0.059-0.181,0.174-0.264,0.344c-0.084,0.171-0.177,0.406-0.279,0.706l-1.3,3.711l-1.372-3.989
				c-0.091-0.277-0.195-0.49-0.314-0.638c-0.119-0.148-0.295-0.224-0.528-0.224c-0.135,0-0.264,0.036-0.389,0.107
				c-0.124,0.071-0.222,0.166-0.293,0.285c-0.071,0.118-0.107,0.247-0.107,0.386c0,0.13,0.062,0.341,0.184,0.629l1.995,5.022
				l-0.148,0.362c-0.111,0.265-0.209,0.466-0.294,0.602c-0.085,0.138-0.181,0.233-0.288,0.288c-0.107,0.056-0.254,0.084-0.44,0.084
				c-0.075,0-0.164-0.013-0.267-0.036c-0.083-0.024-0.169-0.036-0.256-0.036c-0.221,0-0.388,0.051-0.5,0.151
				c-0.114,0.102-0.169,0.245-0.169,0.431c0,0.273,0.118,0.461,0.356,0.564c0.237,0.103,0.593,0.154,1.068,0.154
				c0.486,0,0.873-0.074,1.161-0.223c0.287-0.148,0.517-0.361,0.691-0.639c0.174-0.277,0.352-0.658,0.535-1.146l2.113-5.532
				c0.051-0.142,0.094-0.283,0.13-0.421c0.036-0.14,0.061-0.246,0.077-0.321c0-0.123-0.031-0.239-0.092-0.35
				C240.727,472.314,240.64,472.226,240.528,472.16z"/>
		</g>
		<g>
			<path style="fill:#1F1A15;" d="M262.933,469.648c-0.533,0-0.954,0.068-1.261,0.203c-0.307,0.137-0.526,0.354-0.654,0.653
				c-0.129,0.301-0.191,0.702-0.191,1.211v0.486h-0.387c-0.543,0-0.814,0.192-0.814,0.583c0,0.174,0.065,0.316,0.196,0.423
				c0.132,0.111,0.315,0.164,0.559,0.164h0.446v4.294c0,0.319,0.075,0.563,0.227,0.731c0.154,0.17,0.345,0.254,0.574,0.254
				c0.242,0,0.438-0.084,0.589-0.254c0.155-0.168,0.23-0.411,0.23-0.731v-4.294h0.396c0.29,0,0.517-0.036,0.681-0.108
				c0.166-0.071,0.245-0.241,0.245-0.503c0-0.374-0.307-0.56-0.926-0.56h-0.396v-0.386c0-0.322,0.043-0.568,0.122-0.74
				c0.087-0.172,0.274-0.26,0.566-0.26c0.107,0,0.241,0.015,0.39,0.035c0.155,0.025,0.268,0.037,0.33,0.037
				c0.134,0,0.252-0.054,0.348-0.16c0.102-0.106,0.15-0.235,0.15-0.384C264.352,469.877,263.882,469.648,262.933,469.648z"/>
			<path style="fill:#1F1A15;" d="M268.093,472.315c-0.32-0.172-0.648-0.256-0.99-0.256c-0.342,0-0.611,0.084-0.818,0.256
				c-0.203,0.171-0.4,0.421-0.593,0.755c-0.015-0.334-0.08-0.584-0.198-0.755c-0.119-0.172-0.313-0.256-0.584-0.256
				c-0.525,0-0.788,0.364-0.788,1.094v4.514c0,0.323,0.078,0.569,0.226,0.733c0.149,0.169,0.341,0.251,0.579,0.251
				c0.237,0,0.432-0.081,0.586-0.247c0.15-0.163,0.233-0.41,0.233-0.737v-1.354c0-0.486,0.015-0.9,0.045-1.239
				c0.033-0.336,0.09-0.631,0.17-0.877c0.084-0.244,0.202-0.426,0.353-0.555c0.149-0.122,0.345-0.185,0.582-0.185
				c0.172,0,0.373,0.037,0.602,0.107c0.226,0.073,0.37,0.112,0.433,0.112c0.158,0,0.304-0.064,0.441-0.194
				c0.135-0.126,0.204-0.292,0.204-0.488C268.575,472.712,268.415,472.485,268.093,472.315z"/>
			<path style="fill:#1F1A15;" d="M274.181,475.572c0.233-0.122,0.351-0.386,0.351-0.791c0-0.441-0.112-0.871-0.339-1.297
				c-0.222-0.423-0.565-0.77-1.018-1.033c-0.454-0.271-0.997-0.404-1.629-0.404c-0.488,0-0.932,0.078-1.33,0.234
				c-0.401,0.156-0.735,0.38-1.008,0.674c-0.275,0.295-0.484,0.643-0.624,1.055c-0.145,0.41-0.218,0.854-0.218,1.334
				c0,1.017,0.292,1.822,0.87,2.418c0.576,0.593,1.385,0.889,2.429,0.889c0.454,0,0.857-0.061,1.208-0.18
				c0.349-0.116,0.64-0.268,0.873-0.445c0.233-0.182,0.405-0.368,0.522-0.566c0.111-0.195,0.167-0.365,0.167-0.513
				c0-0.166-0.048-0.293-0.152-0.386c-0.105-0.092-0.237-0.139-0.405-0.139c-0.152,0-0.272,0.038-0.355,0.109
				c-0.202,0.188-0.367,0.34-0.493,0.449c-0.128,0.113-0.264,0.217-0.415,0.313c-0.15,0.097-0.308,0.169-0.466,0.213
				c-0.161,0.049-0.337,0.069-0.531,0.069c-0.291,0-0.553-0.07-0.793-0.212c-0.24-0.145-0.431-0.357-0.578-0.636
				c-0.144-0.28-0.216-0.606-0.222-0.975h3.172C273.62,475.753,273.947,475.693,274.181,475.572z M270.024,474.832
				c0.055-0.546,0.213-0.957,0.472-1.236c0.26-0.281,0.592-0.418,0.995-0.418c0.426,0,0.765,0.136,1.025,0.412
				c0.26,0.273,0.407,0.688,0.446,1.242H270.024z"/>
			<path style="fill:#1F1A15;" d="M280.923,475.572c0.231-0.122,0.35-0.386,0.35-0.791c0-0.441-0.116-0.871-0.341-1.297
				c-0.222-0.423-0.564-0.77-1.013-1.033c-0.46-0.271-1.003-0.404-1.634-0.404c-0.486,0-0.932,0.078-1.33,0.234
				c-0.401,0.156-0.737,0.38-1.009,0.674c-0.273,0.295-0.482,0.643-0.623,1.055c-0.145,0.41-0.217,0.854-0.217,1.334
				c0,1.017,0.29,1.822,0.867,2.418c0.58,0.593,1.388,0.889,2.43,0.889c0.454,0,0.86-0.061,1.209-0.18
				c0.348-0.116,0.641-0.268,0.872-0.445c0.234-0.182,0.408-0.368,0.518-0.566c0.117-0.195,0.171-0.365,0.171-0.513
				c0-0.166-0.047-0.293-0.149-0.386c-0.104-0.092-0.239-0.139-0.407-0.139c-0.151,0-0.271,0.038-0.354,0.109
				c-0.203,0.188-0.368,0.34-0.493,0.449c-0.127,0.113-0.264,0.217-0.415,0.313c-0.152,0.097-0.307,0.169-0.469,0.213
				c-0.157,0.049-0.335,0.069-0.527,0.069c-0.291,0-0.556-0.07-0.795-0.212c-0.239-0.145-0.431-0.357-0.575-0.636
				c-0.144-0.28-0.219-0.606-0.222-0.975h3.171C280.36,475.753,280.688,475.693,280.923,475.572z M276.768,474.832
				c0.052-0.546,0.211-0.957,0.469-1.236c0.261-0.281,0.593-0.418,0.996-0.418c0.425,0,0.764,0.136,1.026,0.412
				c0.257,0.273,0.407,0.688,0.446,1.242H276.768z"/>
			<path style="fill:#1F1A15;" d="M286.934,472.456c-0.42-0.256-0.882-0.386-1.379-0.386c-0.415,0-0.79,0.09-1.114,0.267
				c-0.331,0.177-0.648,0.452-0.952,0.828v-0.194c0-0.297-0.071-0.52-0.219-0.678c-0.142-0.156-0.328-0.234-0.56-0.234
				c-0.233,0-0.418,0.078-0.553,0.228c-0.134,0.155-0.2,0.383-0.2,0.692v6.996c0,0.354,0.052,0.62,0.145,0.807
				c0.103,0.184,0.302,0.274,0.608,0.274c0.517,0,0.778-0.358,0.778-1.068v-2.433c0.286,0.357,0.586,0.634,0.9,0.815
				c0.313,0.188,0.704,0.28,1.166,0.28c0.385,0,0.741-0.076,1.079-0.227c0.334-0.152,0.623-0.372,0.869-0.653
				c0.244-0.283,0.44-0.633,0.58-1.05c0.14-0.419,0.21-0.879,0.21-1.376c0-0.678-0.122-1.262-0.366-1.759
				C287.683,473.091,287.353,472.715,286.934,472.456z M286.458,476.46c-0.137,0.313-0.32,0.547-0.553,0.704
				c-0.23,0.154-0.481,0.233-0.748,0.233c-0.454,0-0.828-0.179-1.133-0.537c-0.307-0.358-0.46-0.862-0.46-1.504
				c0-0.686,0.154-1.204,0.462-1.558c0.307-0.351,0.684-0.527,1.131-0.527c0.281,0,0.541,0.083,0.771,0.247
				c0.229,0.163,0.41,0.397,0.541,0.705c0.13,0.306,0.196,0.674,0.196,1.102C286.665,475.768,286.596,476.147,286.458,476.46z"/>
			<path style="fill:#1F1A15;" d="M289.908,472.059c-0.238,0-0.428,0.08-0.58,0.245c-0.146,0.162-0.222,0.402-0.222,0.722v4.643
				c0,0.313,0.076,0.556,0.222,0.729c0.152,0.17,0.342,0.254,0.58,0.254c0.238,0,0.432-0.082,0.588-0.251
				c0.154-0.164,0.231-0.41,0.231-0.731v-4.69c0-0.286-0.077-0.513-0.231-0.675C290.34,472.139,290.146,472.059,289.908,472.059z"/>
			<path style="fill:#1F1A15;" d="M289.925,469.719c-0.217,0-0.407,0.076-0.571,0.223c-0.166,0.149-0.247,0.338-0.247,0.568
				c0,0.253,0.08,0.446,0.242,0.585c0.158,0.139,0.351,0.21,0.576,0.21c0.22,0,0.408-0.071,0.566-0.21
				c0.157-0.141,0.236-0.335,0.236-0.585c0-0.258-0.081-0.455-0.244-0.592C290.322,469.785,290.138,469.719,289.925,469.719z"/>
			<path style="fill:#1F1A15;" d="M297.268,477.09l-1.662-2.614l0.86-0.789c0.439-0.396,0.659-0.715,0.659-0.951
				c0-0.192-0.068-0.355-0.2-0.483c-0.139-0.128-0.306-0.193-0.51-0.193c-0.169,0-0.313,0.044-0.431,0.13
				c-0.122,0.087-0.291,0.252-0.518,0.487l-1.822,1.914v-3.934c0-0.33-0.074-0.582-0.221-0.751
				c-0.147-0.172-0.344-0.257-0.594-0.257c-0.255,0-0.456,0.092-0.596,0.282c-0.135,0.189-0.206,0.463-0.206,0.821v6.914
				c0,0.323,0.072,0.569,0.214,0.733c0.142,0.169,0.339,0.251,0.588,0.251c0.213,0,0.406-0.084,0.566-0.254
				c0.165-0.168,0.248-0.407,0.248-0.719v-1.291l0.88-0.83l1.428,2.354c0.182,0.278,0.33,0.472,0.436,0.58
				c0.106,0.109,0.261,0.16,0.459,0.16c0.227,0,0.413-0.073,0.554-0.222c0.142-0.15,0.213-0.352,0.213-0.609
				c0-0.089-0.028-0.189-0.081-0.289C297.478,477.43,297.388,477.285,297.268,477.09z"/>
			<path style="fill:#1F1A15;" d="M299.46,476.863c-0.251,0-0.459,0.087-0.63,0.262c-0.171,0.173-0.257,0.381-0.257,0.622
				c0,0.286,0.09,0.51,0.268,0.665c0.18,0.159,0.39,0.238,0.634,0.238c0.237,0,0.444-0.079,0.624-0.241
				c0.175-0.157,0.264-0.38,0.264-0.662c0-0.244-0.089-0.454-0.264-0.627C299.919,476.95,299.708,476.863,299.46,476.863z"/>
			<path style="fill:#1F1A15;" d="M306.847,475.936c-0.167,0-0.309,0.054-0.423,0.155c-0.113,0.104-0.219,0.246-0.317,0.428
				c-0.178,0.31-0.382,0.538-0.616,0.689c-0.231,0.15-0.51,0.226-0.836,0.226c-0.239,0-0.462-0.045-0.665-0.141
				c-0.201-0.094-0.372-0.229-0.517-0.409c-0.143-0.18-0.252-0.398-0.325-0.652c-0.075-0.255-0.114-0.537-0.114-0.843
				c0-0.647,0.147-1.161,0.439-1.533c0.294-0.375,0.683-0.562,1.159-0.562c0.333,0,0.607,0.075,0.82,0.227
				c0.219,0.148,0.425,0.376,0.623,0.675c0.108,0.157,0.209,0.269,0.299,0.339c0.09,0.068,0.201,0.103,0.338,0.103
				c0.202,0,0.378-0.068,0.524-0.203c0.144-0.135,0.215-0.3,0.215-0.491c0-0.192-0.064-0.397-0.192-0.617
				c-0.128-0.218-0.315-0.424-0.557-0.62c-0.245-0.192-0.54-0.353-0.89-0.475c-0.353-0.123-0.737-0.185-1.158-0.185
				c-0.674,0-1.259,0.139-1.746,0.419c-0.486,0.279-0.859,0.675-1.113,1.184c-0.26,0.512-0.387,1.098-0.387,1.766
				c0,0.982,0.281,1.765,0.841,2.35c0.561,0.582,1.345,0.876,2.349,0.876c0.469,0,0.893-0.065,1.268-0.192
				c0.377-0.125,0.688-0.294,0.935-0.502c0.248-0.207,0.434-0.425,0.554-0.656c0.121-0.229,0.182-0.446,0.182-0.646
				c0-0.169-0.066-0.33-0.198-0.48C307.209,476.014,307.044,475.936,306.847,475.936z"/>
			<path style="fill:#1F1A15;" d="M313.659,472.972c-0.288-0.29-0.629-0.518-1.027-0.674c-0.4-0.161-0.847-0.239-1.336-0.239
				c-0.482,0-0.924,0.078-1.326,0.234c-0.398,0.158-0.737,0.38-1.02,0.669c-0.281,0.288-0.498,0.637-0.649,1.045
				c-0.146,0.408-0.224,0.857-0.224,1.35c0,0.484,0.075,0.929,0.219,1.331c0.152,0.402,0.369,0.75,0.657,1.048
				c0.285,0.293,0.627,0.521,1.017,0.677c0.393,0.159,0.835,0.239,1.326,0.239c0.492,0,0.936-0.08,1.336-0.234
				c0.394-0.157,0.735-0.382,1.021-0.675c0.286-0.291,0.501-0.642,0.656-1.05c0.146-0.409,0.222-0.855,0.222-1.336
				c0-0.489-0.075-0.933-0.221-1.34C314.161,473.615,313.945,473.269,313.659,472.972z M312.467,476.889
				c-0.289,0.372-0.682,0.558-1.171,0.558c-0.324,0-0.605-0.087-0.846-0.253c-0.24-0.168-0.424-0.41-0.554-0.729
				c-0.129-0.316-0.193-0.685-0.193-1.108c0-0.429,0.066-0.804,0.197-1.125c0.131-0.321,0.314-0.563,0.556-0.728
				c0.242-0.163,0.522-0.246,0.84-0.246c0.489,0,0.882,0.183,1.171,0.556c0.29,0.367,0.436,0.881,0.436,1.543
				C312.903,476.007,312.757,476.52,312.467,476.889z"/>
			<path style="fill:#1F1A15;" d="M323.584,472.332c-0.321-0.172-0.705-0.262-1.147-0.262c-0.381,0-0.727,0.081-1.039,0.241
				c-0.313,0.161-0.606,0.407-0.881,0.738c-0.192-0.326-0.432-0.573-0.726-0.735c-0.292-0.162-0.642-0.244-1.049-0.244
				c-0.394,0-0.747,0.079-1.07,0.241c-0.318,0.155-0.619,0.403-0.902,0.738v-0.153c0-0.262-0.074-0.467-0.222-0.615
				c-0.15-0.146-0.335-0.223-0.558-0.223c-0.227,0-0.412,0.078-0.556,0.239c-0.14,0.156-0.21,0.389-0.21,0.694v4.637
				c0,0.336,0.078,0.592,0.235,0.765c0.156,0.171,0.358,0.258,0.605,0.258c0.248,0,0.447-0.087,0.603-0.258
				c0.15-0.173,0.227-0.429,0.227-0.765v-2.189c0-0.684,0.086-1.207,0.254-1.567c0.168-0.369,0.516-0.55,1.048-0.55
				c0.264,0,0.459,0.072,0.581,0.22c0.122,0.142,0.198,0.33,0.227,0.552c0.027,0.227,0.04,0.544,0.04,0.952v2.582
				c0,0.342,0.078,0.595,0.233,0.768c0.148,0.17,0.35,0.255,0.595,0.255c0.254,0,0.454-0.085,0.61-0.255
				c0.156-0.173,0.232-0.426,0.232-0.768v-2.154c0-0.693,0.061-1.178,0.178-1.451c0.108-0.21,0.259-0.385,0.45-0.508
				c0.192-0.126,0.395-0.192,0.608-0.192c0.264,0,0.463,0.072,0.596,0.215c0.129,0.142,0.21,0.318,0.239,0.529
				c0.028,0.209,0.043,0.486,0.043,0.836v2.726c0,0.336,0.079,0.592,0.235,0.765c0.157,0.171,0.356,0.258,0.603,0.258
				c0.253,0,0.459-0.085,0.612-0.255c0.153-0.173,0.229-0.426,0.229-0.768v-3.164c0-0.629-0.068-1.09-0.206-1.386
				C324.142,472.757,323.902,472.506,323.584,472.332z"/>
		</g>
		<g>
			<path style="fill:#1F1A15;" d="M245.272,474.964c-0.002-0.003-0.002-0.007-0.002-0.012
				C245.27,474.957,245.27,474.961,245.272,474.964z"/>
			<path style="fill:#1F1A15;" d="M245.354,475.481c0,0,0,0,0.002,0c-0.031-0.147-0.056-0.294-0.074-0.438
				C245.301,475.189,245.325,475.336,245.354,475.481z"/>
			<path style="fill:#1F1A15;" d="M245.891,476.985c-0.004-0.006-0.007-0.013-0.011-0.021
				C245.884,476.973,245.887,476.979,245.891,476.985z"/>
			<path style="fill:#1F1A15;" d="M245.84,476.886c-0.015-0.027-0.028-0.057-0.041-0.084
				C245.811,476.831,245.825,476.858,245.84,476.886z"/>
			<path style="fill:#1F1A15;" d="M245.505,476.06c0.079,0.251,0.175,0.493,0.286,0.725c-0.113-0.236-0.207-0.479-0.284-0.725
				H245.505z"/>
			<path style="fill:#1F1A15;" d="M250.736,468.199l-0.076-0.259c0.299-0.063,0.523-0.329,0.523-0.646
				c0-0.364-0.296-0.659-0.66-0.659c-0.364,0-0.66,0.295-0.66,0.659c0,0.317,0.225,0.583,0.523,0.646l0.083,0.289
				c-1.021,0.141-1.835,0.539-1.835,0.539l0.145,0.44c0.618-0.205,1.154-0.331,1.641-0.383c0.476-0.051,0.834-0.073,1.126-0.073
				c0.314,0,0.544,0.025,0.81,0.069l0.074-0.477C252.43,468.346,251.698,468.121,250.736,468.199z"/>
			<path style="fill:#1F1A15;" d="M245.452,470.707c-0.018,0.023-0.496,0.465-0.876,1.279c-0.016-0.025-0.034-0.05-0.056-0.074
				c-0.113-0.124-0.272-0.188-0.475-0.184c-0.002,0-0.006,0-0.009,0c-0.125,0-0.21-0.041-0.267-0.092
				c0.056-0.071,0.09-0.16,0.09-0.259c0-0.229-0.188-0.418-0.419-0.418c-0.23,0-0.418,0.188-0.418,0.418
				c0,0.232,0.188,0.419,0.418,0.419c0.036,0,0.071-0.007,0.104-0.014c0.103,0.114,0.266,0.214,0.505,0.209
				c0.122-0.001,0.213,0.03,0.273,0.098c0.069,0.075,0.093,0.185,0.1,0.267c-0.001,0.002-0.001,0.003-0.001,0.003
				c-0.274,0.744-0.195,1.669-0.195,1.669l0.66,0.026c0.014-0.337,0.063-0.927,0.232-1.394c0.33-0.906,0.741-1.473,0.759-1.496
				l0.003-0.005c0.025-0.031,0.048-0.061,0.071-0.09l-0.195-0.141L245.452,470.707z"/>
			<path style="fill:#1F1A15;" d="M257.295,469.306c-0.229,0-0.418,0.186-0.418,0.418c0,0.036,0.006,0.07,0.015,0.103
				c-0.114,0.104-0.214,0.267-0.21,0.506c0.001,0.124-0.03,0.213-0.097,0.273c-0.054,0.047-0.12,0.072-0.186,0.088
				c-0.491-0.689-1.097-1.109-1.097-1.109l-0.475,0.508c0.358,0.326,0.725,0.734,1.08,1.244c0.246,0.353,0.5,0.806,0.71,1.259
				l0.641-0.304c0,0-0.293-0.722-0.704-1.369c0.071-0.025,0.143-0.065,0.207-0.121c0.125-0.112,0.186-0.272,0.184-0.474
				c-0.002-0.13,0.041-0.218,0.093-0.275c0.071,0.055,0.16,0.089,0.257,0.089c0.232,0,0.419-0.188,0.419-0.418
				C257.714,469.492,257.527,469.306,257.295,469.306z"/>
			<path style="fill:#1F1A15;" d="M255.635,475.057c-0.881,0.43-2.331,0.996-4.238,1.263c-0.749,0.104-1.475,0.142-2.143,0.142
				c-0.869,0-1.638-0.064-2.227-0.139c-0.673-0.085-1.199-0.189-1.52-0.262c0.077,0.245,0.171,0.488,0.284,0.725
				c0.002,0.006,0.004,0.013,0.008,0.017c0.013,0.027,0.026,0.057,0.041,0.084c0.013,0.027,0.026,0.054,0.04,0.079
				c0.004,0.008,0.007,0.015,0.011,0.021c0.189,0.356,0.416,0.684,0.676,0.969c0.899,0.984,1.816,1.14,1.825,1.141l0.015,0.002
				l0.013,0.005c0.009,0.003,0.821,0.266,2.058,0.266c1.216,0,2.409-0.245,3.546-0.729c0.843-0.431,1.639-1.085,2.034-1.669
				c0.305-0.451,0.525-0.933,0.655-1.434c0.07-0.266,0.125-0.691,0.093-1.141C256.557,474.561,256.165,474.799,255.635,475.057z"/>
			<path style="fill:#1F1A15;" d="M252.322,469.174c-0.265-0.043-0.477-0.068-0.776-0.068c-0.28,0-0.626,0.022-1.09,0.071
				c-0.464,0.048-0.982,0.171-1.583,0.372c-0.842,0.282-1.604,0.725-2.203,1.28l-0.021,0.019c-0.088,0.082-0.273,0.254-0.487,0.525
				c-0.025,0.038-0.407,0.578-0.709,1.408c-0.227,0.622-0.217,1.527-0.217,1.538v0.002c0,0.212,0.012,0.423,0.035,0.631
				c0,0.005,0,0.009,0.002,0.012c0.002,0.026,0.007,0.052,0.01,0.079c0.019,0.145,0.043,0.291,0.074,0.438
				c0.437,0.111,3.048,0.721,5.968,0.314c1.828-0.255,3.218-0.796,4.062-1.205c0.7-0.34,1.15-0.647,1.325-0.773
				c-0.174-0.643-0.651-1.65-1.09-2.279C254.368,469.747,253.017,469.288,252.322,469.174z M248.679,474.434
				c-0.972,0-1.761-0.787-1.761-1.76c0-0.972,0.789-1.761,1.761-1.761c0.973,0,1.761,0.789,1.761,1.761
				C250.439,473.647,249.651,474.434,248.679,474.434z M253.83,473.136c-0.602,0-1.089-0.488-1.089-1.09
				c0-0.601,0.487-1.089,1.089-1.089c0.6,0,1.089,0.488,1.089,1.089C254.919,472.647,254.43,473.136,253.83,473.136z"/>
		</g>
	</g>
</g>
</svg>
