<?xml version="1.0" encoding="utf-8"?>
<!-- Generator: Adobe Illustrator 27.5.0, SVG Export Plug-In . SVG Version: 6.00 Build 0)  -->
<svg version="1.1" id="Layer_1" xmlns="http://www.w3.org/2000/svg" xmlns:xlink="http://www.w3.org/1999/xlink" x="0px" y="0px"
	 viewBox="0 0 550 550" style="enable-background:new 0 0 550 550;" xml:space="preserve">
<g>
	<g id="_x39_07_-_PHP_Coding">
		<g>
			<path style="fill:#C7BFF3;" d="M506.4,95.6H43.7c-4.8,0-8.7,3.9-8.7,8.7V144l480-1.1v-38.7C515,99.5,511.1,95.6,506.4,95.6z
				 M84.9,127.9H68.4v-16.5h16.5V127.9z M131.8,127.9h-16.5v-16.5h16.5V127.9z M178.7,127.9h-16.5v-16.5h16.5V127.9z"/>
			<path style="fill:#665ADB;" d="M35,445.7c0,4.8,3.9,8.6,8.7,8.6h462.7c4.8,0,8.6-3.9,8.6-8.6V154.5l-480,1.1V445.7z M300.2,325.9
				l-40.4,94.5c-0.9,2.2-3.1,3.5-5.3,3.5c-0.8,0-1.5-0.1-2.3-0.5c-2.9-1.3-4.3-4.6-3-7.6l40.4-94.5c1.3-2.9,4.6-4.3,7.6-3
				C300.1,319.6,301.5,323,300.2,325.9z M328.2,197.9c0-3.2,2.6-5.8,5.8-5.8h29.3c15.3,0,27.8,12.5,27.8,27.8s-12.5,27.8-27.8,27.8
				h-23.5V286c0,3.2-2.6,5.8-5.8,5.8s-5.8-2.6-5.8-5.8V197.9z M312.9,405.5l35.5-34.7l-32.8-34.6c-2.2-2.3-2.1-6,0.2-8.1
				c2.3-2.2,6-2.1,8.1,0.2l36.7,38.7c2.2,2.3,2.1,5.9-0.2,8.1l-39.6,38.7c-1.1,1.1-2.6,1.6-4,1.6c-1.5,0-3-0.6-4.1-1.7
				C310.5,411.4,310.6,407.8,312.9,405.5z M246.7,196.7c0-3.2,2.6-5.8,5.8-5.8s5.8,2.6,5.8,5.8V235h33v-38.3c0-3.2,2.6-5.8,5.8-5.8
				c3.2,0,5.8,2.6,5.8,5.8v89.5c0,3.2-2.6,5.8-5.8,5.8c-3.2,0-5.8-2.6-5.8-5.8v-39.6h-33v38.3c0,3.2-2.6,5.8-5.8,5.8
				s-5.8-2.6-5.8-5.8V196.7L246.7,196.7z M233.6,328c2.3,2.2,2.4,5.8,0.2,8.1L201,370.8l35.5,34.7c2.3,2.2,2.3,5.9,0.1,8.2
				c-1.1,1.2-2.6,1.7-4.1,1.7s-2.9-0.5-4-1.6l-39.6-38.7c-2.2-2.2-2.3-5.8-0.2-8.1l36.7-38.7C227.7,325.9,231.3,325.9,233.6,328z
				 M158.4,197.9c0-3.2,2.6-5.8,5.8-5.8h29.3c15.3,0,27.8,12.5,27.8,27.8s-12.5,27.8-27.8,27.8H170V286c0,3.2-2.6,5.8-5.8,5.8
				s-5.8-2.6-5.8-5.8V197.9L158.4,197.9z"/>
			<path style="fill:#665ADB;" d="M209.7,220c0-9-7.3-16.3-16.3-16.3H170v32.6h23.5C202.4,236.3,209.7,229,209.7,220z"/>
			<path style="fill:#665ADB;" d="M379.5,220c0-9-7.3-16.3-16.3-16.3h-23.5v32.6h23.5C372.2,236.3,379.5,229,379.5,220z"/>
		</g>
	</g>
	<g id="Layer_1_00000011012142265846966890000003448768680475067821_">
	</g>
</g>
</svg>
