<?xml version="1.0" encoding="utf-8"?>
<!-- Generator: Adobe Illustrator 27.5.0, SVG Export Plug-In . SVG Version: 6.00 Build 0)  -->
<svg version="1.1" id="Coding_2_" xmlns="http://www.w3.org/2000/svg" xmlns:xlink="http://www.w3.org/1999/xlink" x="0px" y="0px"
	 viewBox="0 0 1200 1200" style="enable-background:new 0 0 1200 1200;" xml:space="preserve">
<rect id="Background" style="fill:#E57B5E;" width="1200" height="1200"/>
<g id="Coding_1_">
	<circle id="Background_3_" style="fill:#FF916E;" cx="600" cy="600" r="525"/>
	<g id="Coding">
		<path id="Compound" style="fill:#CF7659;" d="M840.176,261.401v43.828v2.227v2.446v41.385v2.227v2.446v41.382v2.227v2.446v41.385
			v2.229v2.446v43.828v2.227h-3.111h-56.291h-3.117h-3.34h-53.174h-3.123h-3.105h-53.18H658.4h-3.111h-53.18h-3.117h-3.117h-53.402
			h-3.111h-3.111h-53.174h-3.117h-3.117h-56.514h-3.117v-2.227v-43.828v-2.446v-2.229v-41.385v-2.446v-2.227V355.96v-2.446v-2.227
			v-41.385v-2.446v-2.227v-43.828v-2.229h3.117h56.514h3.117h3.117h53.174h3.111h3.111h53.402h3.117h3.117h53.18h3.111h3.334h53.18
			h3.105h3.123h53.174h3.34h3.117h56.291h3.111V261.401z M833.941,309.902h-53.168v41.385h53.168V309.902z M774.316,309.902h-53.174
			v41.385h53.174V309.902z M714.914,309.902h-53.18v41.385h53.18V309.902z M655.289,309.902h-53.18v41.385h53.18V309.902z
			 M595.875,309.902h-53.402v41.385h53.402V309.902z M536.25,309.902h-53.174v41.385h53.174V309.902z M476.842,309.902h-53.397
			v41.385h53.397V309.902z M423.445,305.229h53.397v-41.382h-53.397V305.229z M483.076,305.229h53.174v-41.382h-53.174V305.229z
			 M542.473,305.229h53.402v-41.382h-53.402V305.229z M602.109,305.229h53.18v-41.382h-53.18V305.229z M661.734,305.229h53.18
			v-41.382h-53.18V305.229z M721.143,305.229h53.174v-41.382h-53.174V305.229z M780.773,305.229h53.168v-41.382h-53.168V305.229z
			 M833.941,355.96h-53.168v41.382h53.168V355.96z M774.316,355.96h-53.174v41.382h53.174V355.96z M714.914,355.96h-53.18v41.382
			h53.18V355.96z M655.289,355.96h-53.18v41.382h53.18V355.96z M595.875,355.96h-53.402v41.382h53.402V355.96z M536.25,355.96
			h-53.174v41.382h53.174V355.96z M476.842,355.96h-53.397v41.382h53.397V355.96z M833.941,402.015h-53.168v41.385h53.168V402.015z
			 M774.316,402.015h-53.174v41.385h53.174V402.015z M714.914,402.015h-53.18v41.385h53.18V402.015z M655.289,402.015h-53.18v41.385
			h53.18V402.015z M595.875,402.015h-53.402v41.385h53.402V402.015z M536.25,402.015h-53.174v41.385h53.174V402.015z
			 M476.842,402.015h-53.397v41.385h53.397V402.015z M833.941,448.075h-53.168v41.385h53.168V448.075z M774.316,448.075h-53.174
			v41.385h53.174V448.075z M714.914,448.075h-53.18v41.385h53.18V448.075z M655.289,448.075h-53.18v41.385h53.18V448.075z
			 M595.875,448.075h-53.402v41.385h53.402V448.075z M536.25,448.075h-53.174v41.385h53.174V448.075z M476.842,448.075h-53.397
			v41.385h53.397V448.075z"/>
		<g id="Laptop">
			<path style="fill-rule:evenodd;clip-rule:evenodd;fill:#4D565E;" d="M306.855,485.004h584.051
				c12.012,0,21.586,9.794,21.586,21.809v398.933H285.053V506.813C285.053,494.798,294.844,485.004,306.855,485.004L306.855,485.004
				z"/>
			<path style="fill-rule:evenodd;clip-rule:evenodd;fill:#343B42;" d="M188.045,978.727h410.725h410.947
				c2.232,0,1.781-1.784-0.896-3.788l-88.318-67.857c-2.678-2.224-6.897-3.782-9.135-3.782H598.769H286.383
				c-2.227,0-6.445,1.559-9.117,3.782l-88.33,67.857C186.258,976.942,185.813,978.727,188.045,978.727L188.045,978.727z"/>
			<path style="fill-rule:evenodd;clip-rule:evenodd;fill:#4D565E;" d="M191.156,973.828c271.893,0,543.557,0,815.449,0
				c6.012,0,6.674,5.124,1.33,11.344l-11.121,12.463c-5.566,6.234-14.906,11.127-21.141,11.127c-251.191,0-502.389,0-753.592,0
				c-6.223,0-15.574-4.893-21.135-11.127l-11.127-12.463C184.488,978.952,184.928,973.828,191.156,973.828L191.156,973.828z"/>
			<polygon style="fill-rule:evenodd;clip-rule:evenodd;fill:#E6E6E6;" points="534.914,940.898 569.402,940.898 628.353,940.898 
				662.853,940.898 682.207,962.039 609,962.039 588.756,962.039 515.56,962.039 			"/>
			<rect x="304.852" y="512.153" style="fill-rule:evenodd;clip-rule:evenodd;fill:#E6E6E6;" width="588.059" height="372.234"/>
		</g>
		<g id="Circle">
			<path style="fill-rule:evenodd;clip-rule:evenodd;fill:#FDDA79;" d="M200.057,891.51c68.754,0,124.822-56.074,124.822-124.825
				c0-68.748-56.068-124.819-124.822-124.819S75.24,697.937,75.24,766.685C75.24,835.435,131.303,891.51,200.057,891.51
				L200.057,891.51z"/>
			<path style="fill-rule:evenodd;clip-rule:evenodd;fill:#92DEEB;" d="M929.402,626.956c107.238,0,194.9-87.437,194.9-194.903
				c0-107.241-87.662-194.684-194.9-194.684c-107.244,0-194.912,87.442-194.912,194.684
				C734.49,539.519,822.158,626.956,929.402,626.956L929.402,626.956z"/>
		</g>
		<g id="Codes">
			<rect x="345.791" y="582.902" style="fill-rule:evenodd;clip-rule:evenodd;fill:#808080;" width="324.615" height="18.466"/>
			<rect x="535.137" y="619.169" style="fill-rule:evenodd;clip-rule:evenodd;fill:#808080;" width="192.457" height="15.794"/>
			<rect x="357.135" y="652.541" style="fill-rule:evenodd;clip-rule:evenodd;fill:#808080;" width="192.24" height="15.803"/>
			<rect x="357.135" y="722.411" style="fill-rule:evenodd;clip-rule:evenodd;fill:#808080;" width="192.24" height="15.8"/>
			<rect x="357.135" y="750.22" style="fill-rule:evenodd;clip-rule:evenodd;fill:#808080;" width="192.24" height="16.022"/>
			<rect x="566.063" y="750.22" style="fill-rule:evenodd;clip-rule:evenodd;fill:#F77B55;" width="60.738" height="16.022"/>
			<rect x="647.935" y="750.22" style="fill-rule:evenodd;clip-rule:evenodd;fill:#808080;" width="60.744" height="16.022"/>
			<rect x="571.184" y="723.302" style="fill-rule:evenodd;clip-rule:evenodd;fill:#808080;" width="137.496" height="15.797"/>
			<rect x="592.318" y="652.541" style="fill-rule:evenodd;clip-rule:evenodd;fill:#808080;" width="103.682" height="15.803"/>
			<rect x="370.711" y="619.169" style="fill-rule:evenodd;clip-rule:evenodd;fill:#808080;" width="55.623" height="15.794"/>
			<rect x="450.363" y="619.169" style="fill-rule:evenodd;clip-rule:evenodd;fill:#F77B55;" width="55.617" height="15.794"/>
			<rect x="705.791" y="582.902" style="fill-rule:evenodd;clip-rule:evenodd;fill:#F77B55;" width="49.617" height="18.466"/>
			<rect x="357.135" y="789.381" style="fill-rule:evenodd;clip-rule:evenodd;fill:#808080;" width="61.412" height="15.797"/>
			<rect x="439.02" y="789.381" style="fill-rule:evenodd;clip-rule:evenodd;fill:#F77B55;" width="61.406" height="15.797"/>
			<rect x="527.35" y="789.381" style="fill-rule:evenodd;clip-rule:evenodd;fill:#808080;" width="99.451" height="15.797"/>
		</g>
		<g id="Text">
			<path style="fill-rule:evenodd;clip-rule:evenodd;fill:#4D565E;" d="M121.963,771.806v-10.011l57.627-24.478v10.679
				l-45.615,18.688l45.615,19.131V796.5L121.963,771.806z M186.258,811.181l25.371-89.883h8.672l-25.359,89.883H186.258z
				 M284.379,771.806L226.98,796.5v-10.685l45.387-19.131l-45.387-18.688v-10.679l57.398,24.478V771.806z"/>
			<g>
				<polygon style="fill-rule:evenodd;clip-rule:evenodd;fill:#4D565E;" points="787.893,431.833 787.893,422.039 832.389,398.235 
					832.389,408.691 797.016,426.932 832.389,445.629 832.389,456.085 				"/>
				<path style="fill-rule:evenodd;clip-rule:evenodd;fill:#4D565E;" d="M881.783,433.166l7.348,1.11
					c-0.896,5.121-2.9,9.123-6.234,12.015c-3.34,2.895-7.57,4.228-12.463,4.228c-6,0-10.904-2.001-14.684-6.003
					c-3.785-4.008-5.566-9.574-5.566-17.136c0-4.896,0.891-9.126,2.449-12.677c1.565-3.565,4.008-6.234,7.342-8.235
					c3.123-1.781,6.68-2.672,10.688-2.672c4.664,0,8.678,1.336,11.789,3.785c3.111,2.446,5.121,6.006,6.006,10.453l-7.342,1.116
					c-0.662-3.117-1.998-5.344-3.785-6.899c-1.775-1.333-4.002-2.224-6.445-2.224c-3.791,0-6.902,1.336-9.352,4.225
					c-2.449,2.669-3.557,6.899-3.557,12.908c0,6.006,1.107,10.456,3.334,13.125c2.449,2.669,5.344,4.008,9.123,4.008
					c2.894,0,5.566-0.894,7.564-2.675C880.002,439.843,881.115,436.951,881.783,433.166L881.783,433.166z"/>
				<path style="fill-rule:evenodd;clip-rule:evenodd;fill:#4D565E;" d="M892.688,427.16c0-8.232,2.443-14.464,7.119-18.246
					c3.779-3.34,8.449-5.118,14.016-5.118c6.234,0,11.127,2.001,15.129,6.003c3.785,4.008,5.783,9.797,5.783,16.69
					c0,5.786-0.891,10.462-2.666,13.573c-1.553,3.337-4.236,6.009-7.342,7.79c-3.34,1.778-7.125,2.666-10.904,2.666
					c-6.229,0-11.35-2.001-15.346-6.003C894.691,440.508,892.688,434.722,892.688,427.16L892.688,427.16z M900.469,427.16
					c0,5.783,1.336,10.011,3.791,12.902c2.672,2.892,5.777,4.23,9.563,4.23c3.779,0,6.902-1.339,9.346-4.23
					c2.672-2.892,3.779-7.119,3.779-13.131c0-5.561-1.336-9.563-3.779-12.457c-2.443-2.889-5.566-4.228-9.346-4.228
					c-3.785,0-6.891,1.339-9.563,4.228C901.805,417.144,900.469,421.594,900.469,427.16L900.469,427.16z"/>
				<path style="fill-rule:evenodd;clip-rule:evenodd;fill:#4D565E;" d="M972.563,449.631v-5.561
					c-2.666,4.225-6.896,6.448-12.469,6.448c-3.551,0-6.885-0.888-9.785-2.895c-3.111-1.995-5.332-4.67-7.119-8.227
					c-1.553-3.56-2.443-7.564-2.443-12.237c0-4.453,0.891-8.461,2.221-12.015c1.564-3.56,3.791-6.454,6.896-8.455
					c2.894-1.781,6.234-2.895,9.791-2.895c2.9,0,5.121,0.668,7.342,1.778c2.004,1.116,3.791,2.669,5.121,4.453v-22.254h7.564v61.857
					H972.563z M948.527,427.38c0,5.563,1.336,10.011,3.779,12.683c2.455,2.892,5.35,4.23,8.461,4.23c3.34,0,6.229-1.339,8.455-4.008
					c2.449-2.669,3.563-6.899,3.563-12.457c0-6.012-1.113-10.459-3.563-13.353c-2.227-2.889-5.338-4.228-8.678-4.228
					c-3.34,0-6.228,1.339-8.455,4.005C949.641,416.921,948.527,421.371,948.527,427.38L948.527,427.38z"/>
				<path style="fill-rule:evenodd;clip-rule:evenodd;fill:#4D565E;" d="M1022.402,435.167l7.787,0.893
					c-1.113,4.67-3.568,8.233-6.896,10.676c-3.34,2.672-7.57,3.782-12.691,3.782c-6.662,0-11.789-2.001-15.563-6.003
					c-3.791-4.008-5.789-9.574-5.789-16.91c0-7.567,1.998-13.353,5.789-17.578c3.773-4.011,8.9-6.231,15.123-6.231
					c6.006,0,10.904,2.001,14.684,6.231c3.791,4.002,5.566,9.788,5.566,17.133c0,0.445,0,1.113,0,1.998h-33.375
					c0.223,4.896,1.553,8.678,4.219,11.35c2.455,2.669,5.566,3.785,9.346,3.785c2.678,0,5.121-0.674,7.125-2.229
					C1019.731,440.73,1021.289,438.281,1022.402,435.167L1022.402,435.167z M997.482,422.933h24.92
					c-0.228-3.782-1.336-6.674-2.889-8.458c-2.455-2.889-5.566-4.447-9.352-4.447c-3.557,0-6.451,1.11-8.678,3.56
					C999.035,415.81,997.705,418.928,997.482,422.933L997.482,422.933z"/>
				<polygon style="fill-rule:evenodd;clip-rule:evenodd;fill:#4D565E;" points="1092.926,431.833 1048.436,456.085 
					1048.436,445.629 1083.586,426.932 1048.436,408.691 1048.436,398.235 1092.926,422.039 				"/>
			</g>
		</g>
		<g id="Gears_1_">
			<path style="fill-rule:evenodd;clip-rule:evenodd;fill:#E6E6E6;" d="M310.189,359.074c6.68,3.56,12.463,8.455,17.133,14.244
				l21.363-7.79l12.012,33.152l-21.358,7.787c0.223,3.56-0.223,7.339-0.891,11.124c-0.668,3.779-1.553,7.342-2.895,10.682
				l17.355,14.681l-22.688,26.924l-17.361-14.464c-6.229,3.782-13.348,6.457-20.912,7.564l-4.008,22.248l-34.482-6.006l3.779-22.471
				c-6.674-3.56-12.457-8.455-17.133-14.238l-21.141,7.787l-12.234-33.155l21.363-7.787c0-3.56,0.223-7.342,0.891-11.121
				c0.668-3.782,1.775-7.345,3.117-10.682l-17.59-14.687l22.705-26.921l17.35,14.684c6.457-4.002,13.576-6.671,20.918-7.784
				l4.002-22.251l34.711,6.009L310.189,359.074z"/>
			<path style="fill-rule:evenodd;clip-rule:evenodd;fill:#E6E5E5;" d="M544.26,286.096c5.783,9.568,9.34,20.024,10.898,30.926
				l32.713,6.234l-9.574,50.505l-32.707-6.009c-2.666,4.67-5.777,9.12-9.34,13.348c-3.563,4.23-7.565,8.01-11.789,11.35
				l10.893,31.371l-48.721,17.133l-10.904-31.374c-10.904,0.22-21.803-1.775-32.039-6.006l-21.803,25.143l-39.164-33.598
				l21.809-25.143c-5.783-9.568-9.34-20.021-10.898-30.929l-32.713-6.003l9.574-50.728l32.701,6.003
				c2.666-4.67,5.783-9.12,9.34-13.348c3.791-4.228,7.57-8.01,12.023-11.353l-11.127-31.365l48.727-17.133l10.904,31.371
				c10.898,0,21.803,1.781,32.256,6.006l21.58-25.143l39.164,33.598L544.26,286.096z"/>
			<path style="fill-rule:evenodd;clip-rule:evenodd;fill:#363F48;" d="M286.834,390.668c9.562,1.559,16.019,10.679,14.232,20.25
				c-1.553,9.565-10.676,16.014-20.244,14.238c-9.568-1.556-16.025-10.682-14.461-20.247
				C268.143,395.344,277.266,388.887,286.834,390.668L286.834,390.668z M289.723,373.761c18.914,3.334,31.371,21.357,28.031,40.269
				c-3.117,18.691-21.135,31.371-40.043,28.034c-18.691-3.337-31.371-21.357-28.037-40.049
				C253.014,383.106,271.031,370.424,289.723,373.761L289.723,373.761z"/>
			<path style="fill-rule:evenodd;clip-rule:evenodd;fill:#363F48;" d="M491.303,308.566c10.682,9.123,12.012,25.588,2.672,36.27
				c-9.346,10.901-25.588,12.012-36.27,2.666c-10.904-9.12-12.234-25.362-2.889-36.264
				C464.156,300.557,480.404,299.221,491.303,308.566L491.303,308.566z M507.545,289.655c21.141,18.246,23.584,50.288,5.344,71.423
				c-18.246,21.36-50.285,23.807-71.426,5.558c-21.357-18.237-23.807-50.279-5.561-71.64
				C454.148,273.639,486.188,271.412,507.545,289.655L507.545,289.655z"/>
		</g>
	</g>
</g>
</svg>
